<?xml version="1.0" standalone="no"?>
<!DOCTYPE svg PUBLIC "-//W3C//DTD SVG 20010904//EN"
 "http://www.w3.org/TR/2001/REC-SVG-20010904/DTD/svg10.dtd">
<svg version="1.0" xmlns="http://www.w3.org/2000/svg"
 width="192.967403pt" height="71.783251pt" viewBox="0 0 192.967403 71.783251"
 preserveAspectRatio="xMidYMid meet">
<metadata>
Created by Potrace Professional 1.1m
</metadata>
<g transform="translate(-17.043908,95.829994) rotate(-360.00) scale(0.022857,-0.022857)"
stroke="none" fill="#ffffff" style="text-shadow: -12px -11px 1px 1px rgba(0, 0, 0, 0.33);">
<path d="M2018 4163 c-117 -98 -21 -261 154 -260 l66 0 -6 -90 c-14 -196 -17
-214 -36 -205 -212 96 -440 -282 -265 -440 70 -63 187 -60 261 6 23 21 23 21
66 -22 54 -54 100 -70 177 -61 106 12 232 97 232 155 0 22 -23 39 -29 21 -19
-55 -113 -117 -179 -117 -52 0 -123 49 -133 91 -6 28 28 353 45 434 12 55 5
171 -15 239 -17 57 -16 60 2 73 174 124 325 169 356 108 12 -22 24 -31 42 -31
34 0 41 14 22 50 -47 92 -131 86 -378 -29 -106 -49 -85 -54 -197 49 -72 67
-129 76 -185 29z m173 -91 c40 -42 43 -82 7 -83 -47 -2 -60 1 -79 20 -29 31
-33 62 -9 86 25 24 42 19 81 -23z m-1 -513 c7 -6 8 -33 3 -80 -5 -40 -8 -106
-7 -148 1 -84 -12 -106 -65 -107 -66 -1 -101 73 -92 193 9 120 94 195 161 142z"/>
<path d="M6710 4098 c-211 -12 -719 -181 -956 -317 -49 -29 -118 -67 -152 -86
-35 -18 -85 -49 -112 -68 -27 -19 -70 -45 -95 -58 -72 -36 -337 -227 -448
-322 -178 -154 -258 -226 -301 -274 -23 -25 -120 -125 -216 -221 -95 -96 -249
-254 -341 -352 -249 -265 -435 -446 -528 -514 -19 -14 -52 -42 -74 -61 -21
-19 -59 -49 -85 -67 -26 -18 -85 -59 -131 -90 -112 -78 -382 -223 -473 -254
-40 -14 -108 -38 -151 -53 -182 -64 -414 -81 -568 -43 -55 14 -128 30 -163 37
-34 7 -82 20 -105 31 -23 10 -68 30 -99 43 -205 87 -442 343 -539 582 -42 104
-65 182 -56 191 9 9 -15 35 -32 35 -21 0 -17 -40 13 -138 15 -49 30 -100 33
-114 23 -93 271 -419 372 -487 144 -97 271 -155 471 -213 49 -15 115 -35 147
-46 242 -84 590 -67 939 45 246 79 628 287 793 433 42 37 124 104 228 184 90
70 302 261 433 388 105 103 241 221 365 317 8 6 19 4 32 -6 10 -9 30 -25 45
-36 26 -21 26 -21 -17 -82 -102 -145 -114 -251 -40 -339 54 -64 189 -90 226
-43 62 81 56 210 -17 341 -46 82 -46 81 50 111 71 21 90 23 292 17 208 -5 243
-9 448 -46 l96 -17 -154 -147 c-293 -280 -453 -445 -453 -468 0 -22 52 -58 77
-52 7 2 36 30 64 62 141 161 178 194 197 179 111 -90 122 -114 135 -295 23
-334 53 -415 183 -493 91 -55 204 -59 309 -11 89 42 105 57 82 81 -15 15 -21
15 -67 -1 -77 -26 -222 -23 -283 7 -45 21 -53 31 -95 121 -47 97 -47 97 -41
252 4 85 9 178 12 207 3 29 6 58 6 66 1 8 8 11 18 7 89 -34 250 -45 308 -21
136 57 116 229 -31 266 -55 14 -241 3 -332 -20 -78 -19 -76 -8 10 77 163 157
181 167 309 159 333 -20 508 112 405 308 -61 117 -247 64 -464 -134 -76 -69
-90 -75 -147 -64 -29 6 -90 16 -136 23 -46 7 -119 19 -162 27 -218 43 -492 29
-634 -33 -46 -20 -88 -37 -94 -37 -13 0 -70 59 -70 72 0 12 210 182 322 261
39 27 123 88 187 135 138 101 209 148 294 194 92 50 280 162 349 209 57 38
451 232 473 232 5 0 68 19 140 41 331 106 604 135 849 93 55 -10 130 -22 168
-28 38 -5 115 -22 173 -37 58 -15 111 -27 119 -27 12 0 124 -41 264 -97 159
-63 393 -232 478 -345 23 -31 60 -77 83 -104 22 -26 48 -57 57 -68 39 -47 99
-145 138 -227 23 -48 48 -91 56 -95 21 -14 50 -10 50 6 0 23 -63 174 -88 212
-62 92 -118 170 -143 199 -15 18 -36 46 -48 63 -49 69 -312 308 -403 365 -175
110 -237 145 -321 184 -481 217 -971 316 -1433 288z m-90 -1406 c49 -75 -38
-119 -245 -126 -143 -5 -143 -5 -112 19 156 121 316 169 357 107z m-1527 -303
c37 -78 17 -153 -40 -152 -88 1 -117 105 -57 209 26 46 26 46 52 16 14 -17 34
-50 45 -73z m1117 -230 c55 -36 17 -90 -66 -98 -95 -10 -380 89 -306 106 14 3
36 8 47 11 53 13 299 -2 325 -19z"/>
<path d="M2793 3943 c-15 -9 -55 -15 -94 -16 -163 -1 -277 -132 -260 -299 16
-151 138 -232 248 -165 36 22 36 22 67 0 35 -25 85 -21 128 9 28 20 32 64 6
58 -76 -17 -71 -20 -76 47 -3 34 -2 92 3 130 5 37 9 97 9 133 0 36 5 68 11 71
15 10 13 48 -3 47 -7 0 -25 -7 -39 -15z m-94 -251 c0 -162 0 -162 -33 -173
-48 -17 -69 -1 -82 62 -33 154 6 273 91 273 23 0 24 -1 24 -162z"/>
<path d="M2958 3919 c-2 -4 0 -85 6 -180 6 -112 6 -196 -1 -237 -11 -72 -8
-86 21 -95 36 -12 82 48 187 246 26 49 52 88 58 87 6 0 17 -40 24 -88 20 -119
35 -136 78 -86 126 150 126 150 92 6 -43 -181 -10 -254 114 -254 20 0 43 -13
72 -40 44 -42 123 -69 370 -129 116 -27 345 -124 391 -164 21 -19 56 -14 56 8
0 9 -51 40 -128 79 -115 57 -202 89 -492 180 -128 41 -167 67 -118 82 90 28
77 152 -16 152 -47 0 -78 -25 -93 -74 -10 -35 -16 -41 -34 -35 -74 22 -85 87
-40 246 18 60 55 210 55 220 0 6 -10 15 -22 21 -24 13 -78 -22 -177 -115 -25
-24 -47 -42 -48 -40 -5 7 -26 145 -26 168 0 27 -17 40 -53 40 -25 0 -87 -73
-128 -149 -42 -79 -47 -77 -56 15 -10 102 -28 144 -62 144 -14 0 -28 -4 -30
-8z m717 -516 c0 -13 -31 -37 -38 -29 -11 11 5 39 22 39 9 0 16 -5 16 -10z"/>
<path d="M1897 3777 c-11 -7 -41 -50 -68 -94 -51 -82 -170 -222 -199 -233 -22
-9 -34 12 -34 58 0 20 -9 88 -21 151 -12 63 -21 116 -21 118 0 14 -68 -3 -112
-28 -111 -64 -196 -205 -213 -357 -19 -164 -18 -161 -77 -191 -24 -12 -47 -26
-49 -30 -3 -4 -34 -26 -69 -49 -349 -236 -391 -665 -74 -758 41 -13 85 -23 97
-23 43 1 134 42 178 82 133 122 154 249 100 606 -12 81 -22 148 -22 149 -1 8
179 109 193 109 1 0 3 -20 4 -44 7 -119 70 -310 121 -366 61 -68 188 -136 256
-136 129 -1 372 181 315 238 -24 24 -57 8 -81 -40 -28 -54 -57 -71 -133 -79
-155 -16 -303 138 -341 357 -24 136 -25 129 11 148 119 61 317 342 291 411 -7
18 -28 19 -52 1z m-433 -173 c4 -39 11 -85 16 -102 33 -115 30 -123 -72 -171
-123 -59 -116 -63 -112 63 3 127 20 168 94 237 63 58 66 56 74 -27z m-235
-671 c-3 -241 -36 -339 -130 -389 -68 -35 -175 33 -175 112 0 92 49 213 117
289 25 27 50 57 54 65 5 8 33 34 63 57 69 55 74 45 71 -134z"/>
<path d="M8489 2594 c-2 -4 3 -28 12 -54 48 -140 -101 -362 -272 -403 -29 -8
-95 137 -85 186 9 39 -15 38 -75 -3 -25 -17 -68 -41 -95 -52 -55 -24 -57 -47
-5 -47 21 0 38 -7 43 -16 17 -36 52 -116 52 -121 0 -3 -30 -5 -68 -5 -39 0
-70 -5 -75 -12 -12 -21 29 -40 85 -40 70 0 80 -10 121 -111 150 -369 284 -489
444 -399 91 52 161 172 128 222 -22 35 -36 31 -36 -8 0 -131 -124 -201 -219
-126 -24 19 -44 40 -44 46 0 6 -14 40 -30 75 -46 98 -106 236 -106 243 0 4 -8
23 -18 43 -9 20 -15 38 -13 39 2 2 49 25 104 51 225 109 344 336 246 467 -24
32 -80 47 -94 25z"/>
<path d="M9150 2550 c-5 -7 -7 -35 -6 -62 5 -96 -76 -377 -108 -377 -6 0 -32
26 -58 58 -25 32 -83 89 -128 128 -88 75 -91 80 -67 104 38 37 -5 56 -47 21
-16 -13 -44 -30 -62 -38 -38 -16 -43 -42 -9 -43 28 0 188 -153 218 -209 21
-40 10 -105 -19 -105 -20 0 -180 163 -180 184 0 30 -36 14 -95 -44 -43 -42
-59 -64 -55 -79 6 -22 8 -23 33 -10 15 9 29 -2 79 -63 86 -104 156 -135 226
-99 35 18 85 74 85 96 0 19 20 19 27 -1 5 -13 -28 -118 -60 -189 -159 -359
-179 -578 -54 -615 96 -29 192 32 255 163 76 158 77 301 2 515 -52 150 -52
145 -2 246 30 61 47 113 54 163 21 146 2 307 -29 256z m-94 -674 c74 -158 76
-287 4 -387 -26 -36 -99 -39 -133 -4 -34 33 -23 153 22 265 74 185 77 189 107
126z"/>
<path d="M6641 2114 c-31 -31 -17 -92 24 -96 63 -6 99 53 63 100 -15 19 -66
17 -87 -4z"/>
<path d="M7542 1992 c-6 -7 -21 -43 -35 -81 -33 -92 -171 -281 -249 -341 -15
-12 -43 -36 -62 -55 -48 -46 -123 -96 -169 -112 -42 -15 -57 -44 -28 -55 36
-14 199 67 293 145 87 73 243 221 270 257 16 21 31 40 34 43 6 6 89 -125 90
-141 0 -7 -10 -16 -23 -20 -82 -26 -207 -133 -236 -201 -35 -85 63 -172 196
-174 150 -1 263 169 228 345 -9 43 -9 43 49 72 91 44 161 123 149 169 -9 37
-53 36 -73 -3 -19 -36 -137 -150 -155 -149 -8 0 -26 20 -41 44 -45 75 -201
271 -215 271 -7 0 -17 -6 -23 -14z m160 -482 c0 -87 -36 -148 -97 -165 -124
-34 -111 113 18 200 73 50 79 48 79 -35z"/>
<path d="M6458 1920 c-58 -28 -84 -34 -163 -38 -98 -5 -117 -12 -108 -37 7
-16 152 -7 216 14 52 18 51 8 -8 -59 -63 -72 -126 -193 -126 -242 0 -151 267
-116 457 60 43 40 83 73 89 73 12 0 6 -64 -11 -137 -5 -20 -11 -72 -12 -115
-4 -79 -4 -79 34 -82 43 -4 48 3 99 140 39 102 132 277 168 315 19 20 47 36
72 40 49 9 60 1 29 -21 -32 -22 -27 -66 11 -87 56 -32 106 55 69 122 -73 129
-232 89 -319 -83 -33 -65 -39 -64 -33 8 5 62 -11 86 -45 67 -9 -5 -35 -5 -58
1 -61 13 -85 -12 -38 -39 53 -30 44 -55 -45 -135 -130 -117 -258 -186 -306
-164 -41 19 -25 56 105 250 101 151 97 142 60 164 -42 25 -59 23 -137 -15z"/>
<path d="M8159 1337 c-61 -38 -182 -98 -198 -98 -6 0 -35 -11 -67 -25 -31 -14
-136 -43 -233 -64 -177 -40 -177 -40 -372 -34 -121 3 -224 11 -270 22 -40 9
-121 26 -180 38 -58 13 -153 38 -210 58 -94 31 -105 33 -122 18 -51 -46 20
-86 255 -145 156 -40 456 -63 677 -52 236 11 668 134 793 225 66 48 68 52 47
75 -26 29 -54 25 -120 -18z"/>
</g>
</svg>
